prolatino . info comunidad latina bit-torrent abre sus puertas y comparte:


Idioma: Español Latino, Inglés
Language: Spanish Latin America, English

Subs: Español Latino .srt


Format                                   : Matroska
Format version                           : Version 2
File size                                : 4.87 GiB
Duration                                 : 1h 52mn
Overall bit rate                         : 6 174 Kbps
Encoded date                             : UTC 2013-04-07 15:06:14
Writing application                      : mkvmerge v5.1.0 ('And so it goes' built on Feb  1 2012 11:32:58
Writing library                          : libebml v1.2.2 + libmatroska v1.3.0

Video
ID                                       : 1
Format                                   : AVC
Format/Info                              : Advanced Video Codec
Format profile                           : High@L4.1
Format settings, CABAC                   : Yes
Format settings, ReFrames                : 5 frames
Muxing mode                              : Header stripping
Codec ID                                 : V_MPEG4/ISO/AVC
Duration                                 : 1h 52mn
Bit rate                                 : 4 028 Kbps
Width                                    : 1 280 pixels
Height                                   : 536 pixels
Display aspect ratio                     : 2.40:1
Default                                  : Yes
Forced                                   : No

Audio #1
ID                                       : 2
Format                                   : DTS
Format/Info                              : Digital Theater Systems
Mode                                     : 16
Format settings, Endianness              : Big
Muxing mode                              : Header stripping
Codec ID                                 : A_DTS
Duration                                 : 1h 52mn
Bit rate mode                            : Constant
Bit rate                                 : 1 509 Kbps
Channel(s)                               : 6 channels
Channel positions                        : Front: L C R, Side: L R, LFE
Sampling rate                            : 48.0 KHz
Bit depth                                : 24 bits
Compression mode                         : Lossy
Stream size                              : 1.19 GiB (24%)
Title                                    : DTS
Language                                 : English
Default                                  : No
Forced                                   : No

Audio #2
ID                                       : 3
Format                                   : AC-3
Format/Info                              : Audio Coding 3
Mode extension                           : CM (complete main)
Format settings, Endianness              : Big
Muxing mode                              : Header stripping
Codec ID                                 : A_AC3
Duration                                 : 1h 52mn
Bit rate mode                            : Constant
Bit rate                                 : 640 Kbps
Channel(s)                               : 6 channels
Channel positions                        : Front: L C R, Side: L R, LFE
Sampling rate                            : 48.0 KHz
Bit depth                                : 16 bits
Compression mode                         : Lossy
Stream size                              : 517 MiB (10%)
Title                                    : AC3 5.1
Language                                 : Spanish
Default                                  : Yes
Forced                                   : No